<svg width="65" height="65" viewBox="0 0 65 65" fill="none" xmlns="http://www.w3.org/2000/svg">
<path d="M32.5 0C26.0721 0 19.7886 1.90609 14.444 5.47724C9.09938 9.04838 4.93378 14.1242 2.47393 20.0628C0.0140817 26.0014 -0.629527 32.5361 0.624493 38.8404C1.87851 45.1448 4.97384 50.9358 9.51904 55.481C14.0643 60.0262 19.8552 63.1215 26.1596 64.3755C32.464 65.6295 38.9986 64.9859 44.9372 62.5261C50.8758 60.0662 55.9516 55.9006 59.5228 50.556C63.0939 45.2114 65 38.9279 65 32.5C64.9909 23.8833 61.5639 15.622 55.4709 9.52908C49.378 3.43612 41.1168 0.00909943 32.5 0ZM46.7688 26.7688L29.2688 44.2688C29.0366 44.5012 28.7609 44.6856 28.4574 44.8114C28.1539 44.9372 27.8286 45.002 27.5 45.002C27.1715 45.002 26.8462 44.9372 26.5427 44.8114C26.2392 44.6856 25.9634 44.5012 25.7313 44.2688L18.2313 36.7688C17.7622 36.2996 17.4986 35.6634 17.4986 35C17.4986 34.3366 17.7622 33.7004 18.2313 33.2312C18.7004 32.7621 19.3366 32.4986 20 32.4986C20.6634 32.4986 21.2997 32.7621 21.7688 33.2312L27.5 38.9656L43.2313 23.2312C43.4635 22.999 43.7393 22.8147 44.0428 22.689C44.3463 22.5633 44.6715 22.4986 45 22.4986C45.3285 22.4986 45.6538 22.5633 45.9573 22.689C46.2607 22.8147 46.5365 22.999 46.7688 23.2312C47.001 23.4635 47.1853 23.7393 47.311 24.0428C47.4367 24.3462 47.5014 24.6715 47.5014 25C47.5014 25.3285 47.4367 25.6538 47.311 25.9572C47.1853 26.2607 47.001 26.5365 46.7688 26.7688Z" fill="#219653"/>
</svg>
